# xmcd CD database file
# Generated: Mit Feb 19 13:09:19 2003 by KSCD
# 
# Track frame offsets:
#       150
#       25195
#       39175
#       58482
#       75407
#       87940
#       114127
#       129815
#       152457
#       165585
#       180870
#       210247
#       224827
#       244355
#
# Disc length: 3519 seconds
#
# Revision: 1
# Processed by: cddbd v1.4PL0 Copyright (c) Steve Scherf et al.
# Submitted via: Kscd 1.3.3
#
DISCID=a60dbd0e
DTITLE=Blues Factory - Hard Workin
DYEAR=1900
DGENRE=
TTITLE0=Hard Workin
TTITLE1=Don't want that stuff
TTITLE2=Stumblin
TTITLE3=Blues'n Jazz
TTITLE4=Messin with the kid
TTITLE5=Sometimes love is trouble
TTITLE6=Chicken man
TTITLE7=Alf's blues
TTITLE8=TV-Mania
TTITLE9=Nasty kind of woman
TTITLE10=Blues for someone
TTITLE11=Eddies Boogie
TTITLE12=What i don't know
TTITLE13=A long time ago
EXTD=
EXTT0=
EXTT1=
EXTT2=
EXTT3=
EXTT4=
EXTT5=
EXTT6=
EXTT7=
EXTT8=
EXTT9=
EXTT10=
EXTT11=
EXTT12=
EXTT13=
PLAYORDER=
